<svg width="97" height="136" viewBox="0 0 97 136" fill="none" xmlns="http://www.w3.org/2000/svg">
<path d="M97 1.16352L88.7123 0C88.7123 0 73.8152 48.2182 60.6422 65.1611C60.6422 65.1611 57.282 41.3844 50.1591 14.5969L41.8062 15.7718C41.8062 15.7718 38.4575 50.7644 33.2465 72.2064C33.2465 72.2064 23.8975 67.269 7.41409 34.2295L0 37.7843C0 37.7843 18.108 70.9636 18.108 123.243L28.2808 121.093C28.2808 121.093 35.5723 99.5341 39.0092 84.0041C39.0092 84.0041 47.3237 86.35 54.6956 82.119C54.6956 82.119 56.8298 98.7672 57.7762 116.383L65.9873 115.525C65.9873 115.525 64.742 92.9874 62.2285 76.1088C62.2285 76.1088 72.3592 65.3537 77.7042 50.0655C77.7042 50.0655 70.635 73.6533 70.635 119.639C70.635 119.639 44.5803 121.437 18.1118 127.663V136C18.1118 136 45.1972 129.185 78.8805 127.24C78.8805 127.24 76.9647 60.9679 97 1.1673V1.16352ZM25.4186 102.915C23.43 80.3171 19.3418 68.9425 19.3418 68.9425C23.7404 76.5281 31.3077 80.7666 31.3077 80.7666C29.3651 89.3231 25.4186 102.919 25.4186 102.919V102.915ZM40.8407 76.0483C46.2968 53.7449 47.2394 35.6008 47.2394 35.6008C49.1667 45.215 53.4964 73.1093 53.4964 73.1093C47.8678 78.2847 40.8407 76.0521 40.8407 76.0521V76.0483Z" fill="black"/>
</svg>
