<svg xmlns="http://www.w3.org/2000/svg" viewBox="0 0 32 32">
  <path d="M21.4 19.2c0-.4-.2-.7-.5-.8-.3-.2-.6-.2-1.1-.2h-2.1V22h.9v-1.4h1c.3 0 .5 0 .6.2.2.2.1.5.1.7v.5h.9v-.7c0-.3 0-.5-.1-.7-.1-.1-.2-.2-.4-.3.3-.2.7-.5.7-1.1zm-1.2.5c-.2.1-.3.1-.5.1h-1.1V19h1.1c.2 0 .3 0 .4.1.1.1.2.2.2.3.1.1 0 .2-.1.3zm6.9 1.4h-1.7v.8h1.7c.9 0 1.4-.4 1.4-1.2 0-.4-.1-.6-.2-.8-.2-.2-.5-.3-1-.3h-.8c-.1 0-.2-.1-.2-.3 0-.1 0-.2.1-.3.1-.1.2-.1.4-.1h1.6v-.8h-1.8c-.9 0-1.3.6-1.3 1.1 0 1.2 1 1.1 1.9 1.2.1 0 .2 0 .3.1.1 0 .1.1.1.2s0 .2-.1.2c-.1.2-.3.2-.4.2zM0 5v8.5L1.1 11h2.3l.3.6V11h2.7l.6 1.3.6-1.3h8.7c.4 0 .7.1 1 .3V11h2.4v.3c.4-.2.9-.3 1.5-.3h3.5l.3.6V11h2.6l.3.6V11h2.5v5.3h-2.5l-.5-.8v.8h-3.1l-.3-.8h-.8l-.4.8h-1.6c-.6 0-1.1-.1-1.4-.3v.3h-3.9V15c0-.2 0-.2-.1-.2h-.1v1.4H8.1v-.6l-.3.6H6.3l-.3-.6v.6H3l-.3-.8h-.8l-.3.8H0v12h31.7v-5.7c-.4.2-.8.2-1.3.2h-2.3v-.3c-.3.2-.8.3-1.2.3h-7.3v-1.2c0-.2 0-.2-.2-.2h-.1v1.4h-2.4v-1.4c-.4.2-.9.2-1.2.2h-.3v1.2h-2.9l-.7-.8-.8.8H6.3v-5.2h4.8l.7.8.7-.8h3.2c.4 0 1 0 1.3.3v-.3h2.9c.3 0 .9.1 1.2.3v-.3h4.3v.3c.2-.2.7-.3 1.1-.3H29v.3c.3-.2.6-.3 1.1-.3h1.6V5.1L0 5zm28.2 14.9s0 .1 0 0c0 .1.1.1 0 0zm3.6-2.5l.1.7h-.1v-.7zm0 2.6l-.1-.1c-.2-.2-.5-.3-1-.3h-.9c-.1 0-.2-.1-.2-.3 0-.1 0-.2.1-.3h2v-.8H30c-.9 0-1.3.6-1.3 1.1 0 1.2 1 1.1 1.9 1.2.1 0 .2 0 .3.1.1 0 .1.1.1.2s0 .2-.1.2c-.1.1-.2.1-.4.1h-1.7v.8h1.7c.6 0 1-.2 1.2-.5.1-.2.2-.4.2-.7.1-.3 0-.5-.1-.7zm-7-1.1v-.8h-3v3.8h3v-.8h-2.1v-.8h2v-.8h-2v-.7l2.1.1zM18 11.7h.9v3.8H18v-3.8zm-.5 1c0-.4-.2-.7-.5-.8-.3-.2-.6-.2-1.1-.2h-2.1v3.8h.9v-1.4h1c.3 0 .5 0 .7.2.2.2.1.5.1.7v.5h.9v-.7c0-.3 0-.5-.1-.7-.1-.1-.3-.2-.4-.3.2-.2.6-.5.6-1.1zm-1.1.6c-.1.1-.3.1-.5.1h-1.1v-.8h1.1c.2 0 .3 0 .4.1.1.1.2.2.2.3s0 .2-.1.3zm4.8-.8h.8v-.8h-.9c-.6 0-1.1.1-1.4.4-.4.4-.5.9-.5 1.5 0 .7.2 1.1.5 1.4.3.3.9.4 1.3.4h1l.3-.8h1.9l.3.8h1.8v-2.8l1.7 2.8h1.3v-3.8h-.9v2.6L27 11.7h-1.4v3.5l-1.5-3.5h-1.3l-1.3 3h-.4c-.2 0-.5 0-.6-.2-.2-.2-.2-.5-.2-.9s.1-.7.3-.8c.1-.3.3-.3.6-.3zm2.3-.1l.6 1.5h-1.2l.6-1.5zM3.2 14.6l.3.8h1.8v-2.9l1.3 2.9h.8l1.3-2.9v2.9h.9v-3.7H8.2l-1.1 2.5-1.2-2.5H4.5v3.6L3 11.7H1.6L0 15.5h1l.3-.8 1.9-.1zm-.9-2.2l.6 1.5H1.6l.7-1.5zm13.5 5.8H13l-1.1 1.2-1.1-1.2H7.1V22h3.5l1.1-1.2 1.1 1.2h1.7v-1.3h1.1c.8 0 1.6-.2 1.6-1.3.1-1-.7-1.2-1.4-1.2zm-5.6 2.9H8v-.7h2v-.8H8v-.7h2.2l1 1.1-1 1.1zm3.5.5L12.4 20l1.4-1.5v3.1zm2.1-1.7h-1.2v-1h1.2c.3 0 .6.1.6.5s-.2.5-.6.5zm-2.5-7.4v-.8h-3v3.8h3v-.8h-2.1v-.8h2v-.8h-2v-.7l2.1.1z" fill="#817e7d"/>
</svg>
