<svg xmlns="http://www.w3.org/2000/svg" width="299pt" height="256" viewBox="0 0 299 192">
  <path d="M272.246 0H21.156c-1.808 0-3.797.18-5.601.543-1.805.363-3.614.906-5.418 1.812-1.63.723-3.254 1.993-4.516 3.258-1.266 1.27-2.531 2.899-3.254 4.532-.902 1.628-1.445 3.44-1.804 5.433-.364 1.813-.364 3.805-.543 5.613v149.434c0 1.813.18 3.805.542 5.617.36 1.813.903 3.621 1.805 5.434.903 1.629 1.988 3.262 3.254 4.527 1.262 1.27 2.887 2.535 4.516 3.262 1.625.906 3.43 1.45 5.418 1.812 1.804.36 3.793.36 5.601.543h256.688a29.55 29.55 0 005.601-.543c1.805-.363 3.614-.906 5.418-1.812 1.63-.906 3.254-1.992 4.516-3.262 1.266-1.266 2.531-2.898 3.254-4.527.902-1.63 1.445-3.442 1.805-5.434.363-1.812.363-3.804.542-5.617V21.191c0-1.808-.18-3.8-.543-5.613-.359-1.812-.902-3.625-1.804-5.433-.903-1.633-1.988-3.262-3.254-4.532-1.262-1.265-2.887-2.535-4.516-3.258-1.625-.906-3.43-1.449-5.418-1.812C281.641.18 279.652.18 277.844 0zm0 0"/>
  <path d="M272.246 6.34h5.598c1.445 0 3.074.18 4.699.363 1.445.18 2.527.543 3.613 1.086 1.082.543 1.985 1.266 2.89 2.172.903.906 1.626 1.812 2.169 2.898.539 1.086.902 2.176 1.082 3.625.36 1.63.36 3.258.36 4.707v149.434c0 1.45-.18 3.082-.36 4.71-.18 1.27-.543 2.536-1.082 3.622-.543 1.09-1.266 1.992-2.168 2.898-.906.907-1.809 1.633-2.89 2.176-1.087.543-2.169.906-3.614 1.086-1.625.363-3.254.363-4.7.363H21.157c-1.265 0-3.074-.183-4.699-.363-1.266-.18-2.527-.543-3.613-1.27-1.082-.542-1.985-1.265-2.89-2.171-.903-.906-1.626-1.813-2.169-2.899-.539-1.086-.902-2.172-1.082-3.62-.36-1.634-.36-3.262-.36-4.712V21.191c0-1.449.18-3.078.36-4.707.18-1.27.543-2.539 1.082-3.625.543-1.086 1.266-1.992 2.168-2.898.906-.906 1.809-1.629 2.89-2.172 1.087-.543 2.169-.906 3.614-1.086 1.625-.363 3.254-.363 4.7-.363h251.09" fill="#fff"/>
  <path d="M81.668 64.484c2.531-3.261 4.336-7.609 3.793-11.957-3.793.184-8.309 2.535-11.016 5.618-2.351 2.714-4.52 7.246-3.976 11.41 4.336.543 8.492-1.813 11.199-5.07m3.793 6.156c-6.14-.364-11.379 3.441-14.27 3.441-2.89 0-7.406-3.258-12.28-3.258-6.325.18-12.106 3.621-15.356 9.418-6.504 11.41-1.809 28.258 4.695 37.492 3.07 4.532 6.863 9.602 11.742 9.422 4.696-.183 6.504-3.082 12.102-3.082 5.601 0 7.226 3.082 12.285 2.899 5.058-.18 8.308-4.528 11.379-9.239 3.613-5.25 5.058-10.324 5.058-10.504-.18-.18-9.933-3.804-9.933-15.035-.18-9.418 7.586-13.945 7.949-14.129-4.156-6.52-11.02-7.242-13.371-7.425m53.11-12.86c13.367 0 22.581 9.239 22.581 22.461 0 13.403-9.394 22.64-22.941 22.64h-14.633v23.368h-10.656V57.781zm-14.993 36.227h12.102c9.215 0 14.453-5.07 14.453-13.586 0-8.695-5.238-13.586-14.453-13.586h-12.282v27.172zM163.86 112.3c0-8.692 6.684-14.13 18.61-14.852l13.726-.726v-3.801c0-5.617-3.793-8.875-9.933-8.875-5.961 0-9.575 2.898-10.477 7.242h-9.758c.543-9.055 8.313-15.758 20.594-15.758 12.106 0 19.871 6.34 19.871 16.485v34.414h-9.754v-8.153h-.18c-2.89 5.618-9.214 9.059-15.718 9.059-10.113 0-16.98-6.16-16.98-15.035zm32.336-4.528v-3.984l-12.28.723c-6.145.363-9.575 3.082-9.575 7.43 0 4.343 3.61 7.242 9.031 7.242 7.227 0 12.824-4.891 12.824-11.41zm19.328 37.133v-8.332c.723.18 2.532.18 3.254.18 4.696 0 7.223-1.992 8.852-7.063 0-.183.902-3.082.902-3.082l-18.066-49.992h11.02l12.644 40.758h.184l12.644-40.758h10.836l-18.606 52.711c-4.335 12.137-9.21 15.942-19.507 15.942-.723-.184-3.254-.184-4.157-.364zm0 0"/>
</svg>
