<svg xmlns="http://www.w3.org/2000/svg" viewBox="0 0 1566.55 292.31">
  <defs>
    <style>
      .cls-1{fill:#363230}
    </style>
  </defs>
  <g id="Layer_2" data-name="Layer 2">
    <g id="Layer_1-2" data-name="Layer 1">
      <path class="cls-1" d="M1382.47 234.58c0-2.14-.06-4.28 0-6.41.25-7.83 7-11.88 13.88-8.14 7.23 3.95 14.33 8.13 21.45 12.28a8.1 8.1 0 014.18 6.74c.41 7.45.27 14.9-2.37 22-6.39 17.23-18.85 27.34-36.83 30.59-10.21 1.84-19.9-.17-28.87-5.2-14.11-7.92-28.09-16.06-42.12-24.09q-23.31-13.35-46.63-26.68c-5.66-3.24-11.17-6.64-15.56-11.63a46.49 46.49 0 01-2-59 44.27 44.27 0 0113.3-11.51q14.83-8.48 29.67-17 23.42-13.44 46.83-26.92c5.64-3.24 11.24-6.57 17-9.63 12.73-6.79 25.93-7.4 39.19-1.94a44.59 44.59 0 0126.12 27.79 42.83 42.83 0 012.4 14.69v7a9.09 9.09 0 0013.79 7.74c13.66-8.06 27.5-15.84 41.27-23.73q13-7.43 26-14.85c5.56-3.19 11-6.54 16.66-9.59a9 9 0 00-.13-15.92c-6.6-3.62-13.07-7.48-19.6-11.22l-38.38-22c-8.56-4.91-17.19-9.69-25.66-14.75-5.7-3.41-13.8-.17-13.91 7.85-.06 4.37-.16 8.75 0 13.12a9.09 9.09 0 01-13.82 8.37c-7.2-4-14.33-8.14-21.44-12.3a8.41 8.41 0 01-4.28-7c-1.31-18.22 4.05-33.75 19.49-44.4 14.72-10.14 30.72-11.76 46.82-3.57 12.14 6.17 23.76 13.35 35.6 20.11q20.15 11.49 40.26 23.05c7 4 14.09 7.77 20.84 12.11 11.79 7.58 18.81 18.5 20.52 32.42 2.24 18.09-4.13 32.79-18.77 43.64-4.31 3.2-9.18 5.64-13.85 8.33q-21.83 12.56-43.7 25c-13.16 7.53-26.24 15.19-39.5 22.52-22.3 12.33-49 3.16-61-16.32a46.47 46.47 0 01-6.86-24.33c0-2.24-.07-4.48 0-6.72.24-6.87-7.55-11.46-13.39-8-6.14 3.61-12.4 7-18.58 10.56q-13.51 7.73-27 15.51l-38.1 21.85c-3.32 1.9-5.45 4.53-5.35 8.57a8.37 8.37 0 004.28 7.29c3.22 2 6.47 3.85 9.74 5.72q20.93 12 41.85 23.95 15.49 8.86 31 17.77c.89.51 1.78 1 2.69 1.45a8.85 8.85 0 0012.81-7.24c.22-2.63 0-5.29 0-7.93zM712.34 68.22h38.55V87.7c1-.91 1.55-1.3 2-1.78C765.52 72 781.37 65.35 800 65.2a71.88 71.88 0 0146.88 16.35A75.64 75.64 0 01869 111a87.1 87.1 0 017 39.9c-1.1 19.28-7.44 36.64-20.34 51.2a73.35 73.35 0 01-47.88 24.91 67.75 67.75 0 01-30.4-3.19 57.94 57.94 0 01-22.91-14.69c-.55-.56-1.14-1.08-2.21-2.08-.17 5-.07 9.38-.08 13.79v67.87h-39.33l-.18-.2c-.07-.08-.18-.15-.19-.24-.06-1-.14-2-.14-3zM751.12 148a89.61 89.61 0 001.8 10.76c4.29 15.71 14.12 26.43 29.9 30.92 19.09 5.44 39.39-3.77 48.4-21.5a45.61 45.61 0 004.76-27.8c-2.59-17.82-12-30.37-29.14-36.55-15.56-5.62-34.24-.19-44.85 12.49-7.25 8.68-10.4 18.75-10.87 31.68zM578 224.5h-38.3v-19.32c-1.32 1.22-2.13 1.88-2.84 2.63-11.57 12.19-25.86 18.46-42.52 19.4A72.23 72.23 0 01443 210.62a73.53 73.53 0 01-22.28-31.18 89.73 89.73 0 01-2.1-59.53 76.4 76.4 0 0131-42.2 72.79 72.79 0 0140.22-12.53A63.23 63.23 0 01521 72.45a62.29 62.29 0 0115.59 11.65c.83.84 1.68 1.66 3 3V68.67c2.48-.7 32.84-.93 38.28-.37.65 2.07.86 152.3.13 156.2zm-123.8-76.78c.24 2 .4 5.25 1.07 8.41 2.47 11.62 8.3 21.08 18.26 27.84a40.5 40.5 0 0027.84 6.91c12.64-1.35 22.85-7.29 30-17.78 7.8-11.43 9.89-24.21 6.8-37.63-3.49-15.12-12.28-26.1-27.15-31.27-15.36-5.35-29.57-2.65-41.91 8-10.32 9.01-14.56 20.8-14.89 35.52zM1015.34 86.48V68.27h38.52v156.44h-38.47v-19.27a20.77 20.77 0 00-1.93 1.53c-14.93 15.88-33.44 22.14-54.9 20.16a71.27 71.27 0 01-47.51-23.59 78.44 78.44 0 01-18.85-37.42 89.55 89.55 0 011.8-45.53c6.29-20.44 18.48-36.44 37.45-46.54 18.23-9.7 37.47-11.9 57.28-5.1A57.92 57.92 0 011011 83c1.21 1.22 2.48 2.38 3.73 3.56.02.01.15-.04.61-.08zm0 60c-.49-3.51-.82-7.06-1.5-10.54-3.86-19.67-20.19-33.82-40.14-34.15-17.45-.29-30.42 7.69-38.7 23-4.37 8.1-5.67 16.92-4.89 26 1 11.5 5.48 21.43 14 29.28a42 42 0 0060.25-3.48c7.41-8.59 10.51-18.83 10.94-30.11zM398.06 156.84h-120a45.25 45.25 0 005.62 17.2c6.65 11.26 16.72 17.23 29.54 18.64 9.52 1 18.64-.42 27.11-5.23a42.6 42.6 0 0014.08-13.28l.95-1.39h40.37a19.67 19.67 0 01-.42 2.11c-6 18.55-17.46 32.63-34.59 42-12 6.61-25 9.63-38.57 10.33a87.9 87.9 0 01-34-4.64c-21.24-7.47-36.44-21.58-45.03-42.58a85.94 85.94 0 01-6.18-30.31 86.18 86.18 0 017.17-38 75.15 75.15 0 0126.24-31.87c14.32-10 30.34-14.44 47.69-14.58a83.32 83.32 0 0137 8 73.92 73.92 0 0130 25.73c10.55 15.57 14.58 32.92 14 51.51a31.27 31.27 0 01-.36 3.34c-.17.8-.37 1.69-.62 3.02zm-41.8-24.77a17.71 17.71 0 00-.16-2.54 35.55 35.55 0 00-15.58-23.16c-8.81-5.83-18.6-7.36-28.93-6.08a37.8 37.8 0 00-18.18 7.31c-7.71 5.73-12.11 13.55-14.56 22.63a7.45 7.45 0 000 1.84zM1136.79 288.77h-44.27c1.42-3 2.67-5.79 4-8.5q10.08-20.88 20.19-41.74c4.58-9.42 9.1-18.87 13.83-28.21a7.81 7.81 0 00.23-7.64c-8.1-17.43-16-35-23.94-52.44q-14-30.69-27.91-61.38c-2.6-5.73-5.23-11.47-7.83-17.21-.45-1-.83-2-1.36-3.34h45.62l40.2 92.11 44-92.21h43.89c-.21 2.44-104.51 216.65-106.65 220.56zM160.49 125.5h-3.19c-11.5 0-23-.07-34.51 0a4.55 4.55 0 01-4.58-2.55 41.58 41.58 0 00-26.06-19.71 38.88 38.88 0 00-32.15 5.3c-14.45 9.41-21 23.2-20.24 40.21.76 16.17 8.11 28.94 22.45 36.82 14.17 7.79 28.49 7.14 42.34-1.29A40.26 40.26 0 00118.69 169c.44-.8.89-1.59 1.36-2.43h41.06c-1.29 4-2.28 7.69-3.72 11.24-6.89 17-18.19 30.16-34.32 39.08a85.11 85.11 0 01-37.92 10.36A84.26 84.26 0 0144 219a75.22 75.22 0 01-30-25.79C2.65 176.45-1.41 157.86.42 137.82A78 78 0 0115.1 98.27C27.24 81.62 43.61 71.32 63.77 67a86.11 86.11 0 0144 2 76.46 76.46 0 0135 22.46 79.28 79.28 0 0117.35 32.19c.17.49.22.98.37 1.85zM218.8 224.5h-39.5V4c2.24-.68 32.19-1 38.95-.37a2.29 2.29 0 01.23.21c.06.07.16.15.16.23.07.81.15 1.62.15 2.43q.02 108.87.01 218zM644.05 224.69h-39.66v-156c2-.69 32.15-1 38.33-.3v13.37l.6.34a41.25 41.25 0 0150.06-13.46v40c-1-.45-1.68-.76-2.38-1.1a54.46 54.46 0 00-18.51-5.84c-12.81-1.36-22.28 5.8-26.17 16.92A40.34 40.34 0 00644 132v88.82z"/>
    </g>
  </g>
</svg>
