<svg width="163" height="17" viewBox="0 0 163 17" fill="none" xmlns="http://www.w3.org/2000/svg">
<path fill-rule="evenodd" clip-rule="evenodd" d="M54.2097 8.30019C54.2097 10.577 54.2528 13.3965 54.3438 15.9183L54.3534 15.9231C58.4079 16.0144 61.2178 14.2852 61.5146 13.1948L61.8305 13.262L61.2848 16.3074H51.9024C52.0125 13.6223 52.0604 10.625 52.0604 8.37224C52.0604 5.75441 52.0173 2.70909 51.9024 0.413088L52.6499 0.455361C57.4503 0.727624 59.1363 0.823248 61.6295 0L61.6199 0.1441C61.572 0.994293 61.1173 1.87811 60.2365 2.21915C59.2018 2.61784 58.2315 2.2122 57.2977 1.82185C57.1515 1.76072 57.0062 1.69997 56.8617 1.64275C56.1724 1.37376 55.1001 1.16721 54.3438 1.02792C54.2528 3.34313 54.2097 5.63913 54.2097 7.91592C56.316 7.91592 58.494 7.48362 60.2365 6.93603L59.8296 9.25605C58.2212 8.70847 56.2921 8.30019 54.2097 8.30019ZM93.4935 8.66516C93.4935 3.64086 96.8443 0.115199 101.741 0.115199C106.275 0.115199 109.467 3.02603 109.467 8.07435C109.467 13.1227 106.093 16.6243 101.22 16.6243C96.6864 16.6243 93.4935 13.6895 93.4935 8.66516ZM96.0306 8.18482C96.0306 12.7768 98.6155 16.2352 101.674 16.2352C104.685 16.2352 106.93 12.8489 106.93 8.54988C106.93 3.95788 104.298 0.523484 101.287 0.523484C98.2756 0.523484 96.0306 3.88583 96.0306 8.18482ZM43.3656 15.2127C39.7611 15.2127 37.224 12.2346 37.224 8.0029C37.224 3.77115 39.919 0.634561 42.638 0.634561C44.974 0.634561 46.8314 2.81528 46.8074 4.1362L47.1042 4.06895L47.8749 0.956385C46.1756 0.38959 44.4283 0.207063 43.3417 0.207063C38.4016 0.207063 34.7779 3.89123 34.7779 8.84829C34.7779 13.1905 37.5639 16.6249 42.121 16.6249C44.5671 16.6249 46.5633 15.6258 48.1478 13.5988L47.9228 13.373C46.8601 14.5787 45.0458 15.2127 43.3704 15.2127H43.3656ZM26.9749 15.2118C23.3703 15.2118 20.8332 12.2337 20.8332 8.00197C20.8332 3.77022 23.5283 0.638435 26.2473 0.638435C28.5833 0.638435 30.4406 2.81915 30.4167 4.14008L30.7087 4.07283L31.4794 0.960259C29.78 0.393464 28.0328 0.210937 26.9461 0.210937C22.006 0.210937 18.3823 3.8951 18.3823 8.85216C18.3823 13.1944 21.1683 16.6288 25.7255 16.6288C28.1716 16.6288 30.1677 15.6297 31.7522 13.6027L31.5272 13.3769C30.4645 14.5826 28.6503 15.2166 26.9749 15.2166V15.2118ZM71.1135 0.614418C69.687 0.614418 68.4855 1.91132 68.4855 3.59249L68.4951 3.5973C68.4951 5.71964 70.3191 6.60384 72.184 7.5079C74.1347 8.4535 76.1302 9.42084 76.1302 11.8495C76.1302 14.1695 74.2729 16.5327 70.5343 16.5327C69.3998 16.5327 67.4276 16.307 65.9101 15.5576L66.6808 12.4403L66.9728 12.373C66.9968 13.6891 68.7871 16.1244 70.9604 16.1244C72.7267 16.1244 74.0862 14.645 74.0862 12.8726C74.0862 10.8358 72.3489 9.99438 70.539 9.11778C68.5714 8.16477 66.5181 7.17023 66.5181 4.55316C66.5181 1.89211 68.7584 0.210937 71.5013 0.210937C72.4299 0.210937 74.1963 0.412677 75.6707 0.960259L74.9 4.07283L74.6032 4.14008C74.6032 2.81916 72.9278 0.614418 71.1135 0.614418ZM82.2633 3.59249C82.2633 1.91132 83.4648 0.614418 84.8913 0.614418C86.7056 0.614418 88.381 2.81916 88.381 4.14008L88.6778 4.07283L89.4485 0.960259C87.9741 0.412677 86.2077 0.210937 85.2791 0.210937C82.5362 0.210937 80.2959 1.89211 80.2959 4.55316C80.2959 7.17023 82.3492 8.16477 84.3168 9.11778C86.1267 9.99438 87.864 10.8358 87.864 12.8726C87.864 14.645 86.5045 16.1244 84.7382 16.1244C82.5649 16.1244 80.7746 13.6891 80.7506 12.373L80.4539 12.4403L79.6832 15.5576C81.2006 16.307 83.1728 16.5327 84.3073 16.5327C88.0459 16.5327 89.9032 14.1695 89.9032 11.8495C89.9032 9.42084 87.9077 8.4535 85.9571 7.5079C84.0921 6.60384 82.2681 5.71964 82.2681 3.5973L82.2633 3.59249ZM129.777 0.43165C129.892 2.70363 129.935 6.0948 129.935 8.36678C129.935 10.6388 129.887 14.0299 129.777 16.3019H132.247C132.132 14.0299 132.089 10.6388 132.089 8.36678C132.089 6.0948 132.132 2.70363 132.247 0.43165H129.777ZM148.143 0.657997L138.967 15.9134L138.971 15.9182C144.543 16.0095 147.741 14.4868 148.239 13.1659L148.555 13.2332L147.875 16.3025H136.702L136.568 16.0527L145.63 0.955804C141.255 0.864541 137.923 2.31996 137.516 3.56883L137.176 3.50158L137.947 0.408223C139.397 0.523503 141.456 0.59075 142.796 0.59075C144.136 0.59075 146.31 0.542716 148.009 0.408223L148.143 0.657997ZM8.83667 0.840005C7.03678 5.86431 6.01238 8.67426 4.74384 11.5611C2.7477 15.8024 0 15.3941 0 15.3941C0 15.3941 2.7812 18.9246 4.74384 15.1684C5.39487 13.9243 5.69644 12.8051 5.78739 12.4161V12.4257L6.14641 11.2008C7.09422 11.1384 8.37233 11.0903 8.92283 11.0903C9.47333 11.0903 10.9621 11.0903 11.9147 11.1384L13.7481 16.3692L16.242 16.1435L10.2632 0.20116L8.83667 0.840005ZM8.92762 10.7061C8.8342 10.7061 8.70655 10.7069 8.55506 10.7078C7.96134 10.7115 7.00133 10.7175 6.29959 10.6869L8.79358 2.11289L11.7375 10.6148C10.852 10.7061 9.49247 10.7061 8.92762 10.7061ZM162.674 13.19C162.378 14.2804 159.568 16.0096 155.513 15.9183C155.422 13.3965 155.379 10.577 155.379 8.30019C157.462 8.30019 159.391 8.70847 160.999 9.25605L161.406 6.93603C159.664 7.48362 157.485 7.91592 155.379 7.91592C155.379 5.63913 155.422 3.34313 155.513 1.02792C156.27 1.16721 157.347 1.37376 158.031 1.64275C158.176 1.69995 158.321 1.76066 158.467 1.82176L158.467 1.82186C159.401 2.2122 160.371 2.61784 161.406 2.21915C162.287 1.87811 162.742 0.994293 162.789 0.1441L162.799 0C160.306 0.823249 158.62 0.727624 153.819 0.45536L153.072 0.413088C153.187 2.70909 153.23 5.75441 153.23 8.37224C153.23 10.625 153.182 13.6223 153.072 16.3074H162.454L163 13.262L162.684 13.1948L162.674 13.19ZM122.764 11.5656C122.846 11.7577 122.917 11.9498 122.984 12.1468H122.989C124.473 16.1768 126.704 15.4707 126.704 15.4707C126.704 15.4707 123.722 19.0636 121.907 15.2353C121.223 13.7895 121.046 13.2611 121.046 13.2611C120.739 12.435 120.423 11.6088 120.093 10.7922C119.859 10.211 119.6 9.63941 119.083 9.25994C118.624 8.92851 118.059 8.82284 117.503 8.82284C116.915 8.82284 116.101 8.9141 115.646 8.98135C115.646 10.9363 115.689 14.5484 115.78 16.3017H113.334C113.444 14.0057 113.492 10.432 113.492 8.27526C113.492 6.11855 113.449 2.97717 113.358 0.705182C114.646 0.479425 116.575 0.296898 117.819 0.296898C121.242 0.296898 123.463 1.66105 123.463 3.93303C123.463 6.70456 120.084 8.34251 118.997 8.6163C119.279 8.66913 119.562 8.74118 119.839 8.83245C121.146 9.26955 122.219 10.2975 122.764 11.5656ZM115.775 0.791642C115.708 2.63475 115.641 6.26682 115.641 8.40495C116.321 8.40495 117.322 8.40495 118.293 8.49621C120.309 7.99666 120.988 6.08493 120.988 4.49502C120.988 2.40557 119.811 0.676362 117.317 0.676362C117.02 0.676362 116.297 0.700379 115.775 0.791642Z" fill="black"/>
</svg>
