<svg xmlns="http://www.w3.org/2000/svg" viewBox="0 0 200 155.6">
  <path d="M127.144 110.282H73.072v-97.14h54.072v97.14z" fill="#716f6d"/>
  <path d="M76.53 61.837c0-19.648 9.038-37.331 23.578-48.727C89.498 4.858 76.137-.25 61.99-.25 27.803-.25.295 27.256.295 61.443S27.803 123.14 61.99 123.14c14.54 0 27.508-5.109 38.118-13.361-14.54-10.61-23.578-28.293-23.578-47.942" fill="#63615e"/>
  <path d="M200.077 61.837c0 34.188-27.507 61.695-61.695 61.695-14.54 0-27.507-5.108-38.117-13.36 14.54-11.396 23.578-28.686 23.578-48.728s-9.038-37.331-23.578-48.727c10.61-8.252 23.97-13.36 38.117-13.36 34.188.785 61.695 28.293 61.695 62.48" fill="#948f8e"/>
  <path d="M145.377 137.883c.786 0 1.572 0 2.358.393l-.786 3.537c-.786-.393-1.572-.393-2.358-.393-2.358 0-3.537 1.572-3.537 4.323v9.038h-3.536v-16.505h3.536v1.965c.786-1.572 2.358-2.358 4.323-2.358m-13.36 3.537h-5.895v7.466c0 1.572.393 2.751 2.358 2.751.786 0 1.964-.393 3.143-.786l1.18 3.144c-1.18.786-2.751 1.179-4.323 1.179-4.323 0-5.502-2.358-5.502-5.895v-7.466h-3.144v-3.144h3.144v-5.108h3.537v5.108h5.894l-.393 2.751zm-45.584 3.537c.393-2.358 1.964-3.93 4.322-3.93s3.93 1.572 4.323 3.93h-8.645zm12.182 1.572c0-5.109-3.144-8.646-7.86-8.646-4.715 0-8.252 3.537-8.252 8.646 0 5.108 3.537 8.645 8.252 8.645 2.358 0 4.716-.786 6.68-2.358l-1.571-2.75c-1.18 1.178-3.144 1.571-4.716 1.571-2.358 0-4.322-1.179-4.715-3.93h12.182v-1.178m15.718-3.93c-.786-.786-3.144-1.572-5.109-1.572-1.964 0-3.143.786-3.143 1.965s1.179 1.572 2.75 1.572l1.572.393c3.93.393 5.895 1.965 5.895 4.715 0 3.144-2.75 5.502-7.466 5.502a13.57 13.57 0 01-7.074-1.965l1.572-2.75c1.179.785 3.144 1.571 5.502 1.571 2.357 0 3.93-.786 3.93-1.965 0-.786-.787-1.572-2.752-1.572l-1.571-.392c-3.537-.393-5.502-2.358-5.502-4.716 0-3.144 2.75-5.109 6.68-5.109 2.751 0 5.109.393 6.68 1.572l-1.964 2.751zm44.012-1.179c-.786 0-1.18 0-1.965.393-.786 0-1.179.393-1.572.786s-.786 1.179-1.179 1.965c-.393.393-.393 1.179-.393 1.965s0 1.572.393 1.964c.393.786.786 1.18 1.18 1.572s1.178.786 1.571 1.18c.786.392 1.179.785 1.965.785s1.572 0 1.965-.393c.786-.393 1.179-.786 1.964-1.179.393-.393.786-1.179 1.18-1.572.392-.785.392-1.178.392-1.964s0-1.572-.393-1.965c-.393-1.18-.786-1.572-1.179-2.358-.785-.393-1.178-.786-1.964-.786-.393-.393-1.18-.393-1.965-.393m0-3.537c1.179 0 2.358.393 3.536.786 1.18.393 1.965 1.18 2.751 1.965.786.786 1.572 1.572 1.965 2.751.393 1.179.786 2.358.786 3.537s-.393 1.964-.786 3.143c-.393 1.18-1.179 1.965-1.965 2.751-.786.786-1.572 1.179-2.75 1.572-1.18.786-2.358.786-3.537.786s-2.358 0-3.537-.786c-1.179-.393-1.965-.786-2.75-1.572s-1.18-1.572-1.965-2.75c-.393-1.18-.393-2.358-.393-3.537s.393-2.358.786-3.537c.393-1.179 1.178-1.965 1.964-2.75s1.572-1.573 2.751-1.966c.786 0 1.965-.393 3.144-.393m-92.74 8.646c0-2.751 1.965-5.109 5.11-5.109 3.143 0 5.108 2.358 5.108 5.109s-1.965 5.108-5.109 5.108-5.108-2.358-5.108-5.108m13.36 0v-8.253H75.43v1.965c-1.18-1.572-2.751-2.358-5.109-2.358-4.715 0-8.252 3.537-8.252 8.646 0 5.108 3.537 8.645 8.252 8.645 2.358 0 3.93-.786 5.109-2.358v1.965h3.536v-8.252zm-20.04 8.252v-10.217c0-3.93-2.358-6.68-6.288-6.68-1.965 0-4.323.785-5.895 2.75a6.875 6.875 0 00-5.501-2.75c-1.572 0-3.537.392-4.716 2.357v-1.965H32.99v16.505h3.536v-9.038c0-2.751 1.572-4.323 3.93-4.323s3.537 1.572 3.537 4.323v9.038h3.536v-9.038c0-2.751 1.572-4.323 3.93-4.323s3.537 1.572 3.537 4.323v9.038h3.93z" fill="#231f20"/>
</svg>
