<svg xmlns="http://www.w3.org/2000/svg" viewBox="0 0 131.4 86.9">
  <path fill="#a19d9b" d="M48.4 15.1h34.7v56.6H48.4z"/>
  <path d="M51.9 43.5c0-11 5.1-21.5 13.8-28.3-15.6-12.3-38.3-9.6-50.6 6s-9.6 38.3 6.1 50.5C34.3 82 52.6 82 65.7 71.8 57 64.9 51.9 54.5 51.9 43.5z" fill="#635f5e"/>
  <path d="M120.5 65.8v-1.2h.5v-.2h-1.2v.2h.5v1.2h.2zm2.3 0v-1.4h-.4l-.4 1-.4-1h-.4v1.4h.3v-1.1l.4.9h.3l.4-.9v1.1h.2z" fill="#f79e1b"/>
  <path d="M123.9 43.5c0 19.9-16.1 36-36 36-8.1 0-15.9-2.7-22.2-7.7 15.6-12.3 18.3-35 6.1-50.6-1.8-2.3-3.8-4.3-6.1-6.1 15.6-12.3 38.3-9.6 50.6 6.1 4.9 6.3 7.6 14.2 7.6 22.3z" fill="#c3c1c1"/>
</svg>
