<svg xmlns="http://www.w3.org/2000/svg" viewBox="0 0 124 33">
  <path d="M21.4 1.2h-9c-.6 0-1.1.4-1.2 1.1L7.5 25.5c-.1.4.2.8.6.9H12.5c.6 0 1.1-.4 1.2-1.1l1-6.2c.1-.6.6-1.1 1.2-1.1h2.9c5.9 0 9.4-2.9 10.3-8.6.4-2.5 0-4.5-1.2-5.8-1.2-1.6-3.4-2.4-6.5-2.4zm1.1 8.5c-.5 3.2-3 3.2-5.4 3.2h-1.4l1-6.1c.1-.4.4-.6.7-.6h.6c1.6 0 3.2 0 4 .9.5.6.7 1.5.5 2.6zm25.9-.1h-4.3c-.4 0-.7.3-.7.6l-.2 1.2-.3-.4c-.9-1.4-3-1.8-5.1-1.8-4.8 0-8.9 3.6-9.7 8.7-.4 2.5.2 5 1.6 6.6 1.3 1.6 3.2 2.2 5.4 2.2 3.8 0 6-2.5 6-2.5l-.2 1.2c-.1.4.2.8.6.9h4c.6 0 1.1-.4 1.2-1.1L49 10.4c.1-.4-.2-.8-.6-.9.1.1.1.1 0 .1zm-6 8.4c-.4 2.5-2.4 4.1-4.9 4.1-1.3 0-2.3-.4-2.9-1.2-.6-.8-.9-1.8-.7-3 .4-2.4 2.4-4.2 4.8-4.2 1.2 0 2.2.4 2.9 1.2.7.8 1 1.9.8 3.1zm29-8.4h-4.3c-.4 0-.8.2-1 .6l-6 8.8-2.5-8.5c-.2-.5-.6-.9-1.2-.9h-4.3c-.4 0-.8.3-.8.8v.2l4.8 14-4.5 6.4c-.2.3-.2.8.2 1 .1.1.3.1.4.1h4.3c.4 0 .8-.2 1-.5L72 10.7c.2-.3.2-.8-.2-1 0-.1-.2-.1-.4-.1z" fill="#55514f"/>
  <path d="M85.8 1.2h-9c-.6 0-1.1.4-1.2 1.1l-3.7 23.2c-.1.4.2.8.6.9H77.2c.4 0 .8-.3.9-.7l1-6.6c.1-.6.6-1.1 1.2-1.1h2.9c5.9 0 9.4-2.9 10.3-8.6.4-2.5 0-4.5-1.2-5.8-1.2-1.6-3.4-2.4-6.5-2.4zm1.1 8.5c-.5 3.2-3 3.2-5.4 3.2h-1.4l1-6.1c.1-.4.4-.6.7-.6h.6c1.6 0 3.2 0 4 .9.5.6.7 1.5.5 2.6zm25.9-.1h-4.3c-.4 0-.7.3-.7.6l-.2 1.2-.3-.4c-.9-1.4-3-1.8-5.1-1.8-4.8 0-8.9 3.6-9.7 8.7-.4 2.5.2 5 1.6 6.6 1.3 1.6 3.2 2.2 5.4 2.2 3.8 0 6-2.5 6-2.5l-.2 1.2c-.1.4.2.8.6.9h4c.6 0 1.1-.5 1.2-1.1l2.3-14.8c.1-.4-.2-.8-.6-.9.1.1.1.1 0 .1zm-6 8.4c-.4 2.5-2.4 4.1-4.9 4.1-1.3 0-2.3-.4-2.9-1.2-.6-.8-.9-1.8-.7-3 .4-2.4 2.4-4.2 4.8-4.2 1.2 0 2.2.4 2.9 1.2.7.8 1 1.9.8 3.1zm11.1-16.1l-3.7 23.6c-.1.4.2.8.6.9H118.6c.6 0 1.1-.4 1.2-1.1l3.7-23.2c.1-.4-.2-.8-.6-.9h-4.3c-.3 0-.6.3-.7.7z" fill="#a3a09f"/>
</svg>
